<?xml version="1.0"?>
<!DOCTYPE svg PUBLIC "-//W3C//DTD SVG 1.1//EN" "http://www.w3.org/Graphics/SVG/1.1/DTD/svg11.dtd">
<svg xmlns="http://www.w3.org/2000/svg" xmlns:xlink="http://www.w3.org/1999/xlink" width="900" height="900" id="grille" >

    <style>
        .ligne {
            stroke: black;
            stroke-width: 1px;
        }

        .texte {
            font-size: 10px;
            font-family:helvetica, sans-serif;
            fill:#000;
            text-anchor:middle;
        }
        .th {
            text-anchor:end;
        }			
    </style>
    
    <defs>
        <g id="gh">
            <line x1="0" y1="0" x2="900" y2="0" class="ligne"></line>

            <line x1="0" y1="50" x2="900" y2="50" class="ligne"></line>
        </g>
        <g id="gv">
            <line x1="0" y1="0" x2="0" y2="900" class="ligne"></line>

            <line x1="50" y1="0" x2="50" y2="900" class="ligne"></line>
        </g>

    </defs>
    <rect x="0" y="0" width="950" height="950" fill="coral" stroke="black" stroke-width="3"></rect>
    <use xlink:href="#gh" transform="translate(0 50)"></use>
    <use xlink:href="#gh" transform="translate(0 100)"></use>
    <use xlink:href="#gh" transform="translate(0 150)"></use>
    <use xlink:href="#gh" transform="translate(0 200)"></use>
    <use xlink:href="#gh" transform="translate(0 250)"></use>
    <use xlink:href="#gh" transform="translate(0 300)"></use>
    <use xlink:href="#gh" transform="translate(0 350)"></use>
    <use xlink:href="#gh" transform="translate(0 400)"></use>
    <use xlink:href="#gh" transform="translate(0 450)"></use>
    <use xlink:href="#gh" transform="translate(0 500)"></use>
    <use xlink:href="#gh" transform="translate(0 550)"></use>
    <use xlink:href="#gh" transform="translate(0 600)"></use>
    <use xlink:href="#gh" transform="translate(0 650)"></use>
    <use xlink:href="#gh" transform="translate(0 700)"></use>
    <use xlink:href="#gh" transform="translate(0 750)"></use>
    <use xlink:href="#gh" transform="translate(0 800)"></use>
    <use xlink:href="#gh" transform="translate(0 850)"></use>
    <use xlink:href="#gh" transform="translate(0 900)"></use>


    <use xlink:href="#gv" transform="translate(50 0)"></use>
    <use xlink:href="#gv" transform="translate(100 0)"></use>
    <use xlink:href="#gv" transform="translate(150 0)"></use>
    <use xlink:href="#gv" transform="translate(200 0)"></use>
    <use xlink:href="#gv" transform="translate(250 0)"></use>
    <use xlink:href="#gv" transform="translate(300 0)"></use>
    <use xlink:href="#gv" transform="translate(350 0)"></use>
    <use xlink:href="#gv" transform="translate(400 0)"></use>
    <use xlink:href="#gv" transform="translate(450 0)"></use>
    <use xlink:href="#gv" transform="translate(500 0)"></use>
    <use xlink:href="#gv" transform="translate(550 0)"></use>
    <use xlink:href="#gv" transform="translate(600 0)"></use>
    <use xlink:href="#gv" transform="translate(650 0)"></use>
    <use xlink:href="#gv" transform="translate(700 0)"></use>
    <use xlink:href="#gv" transform="translate(750 0)"></use>
    <use xlink:href="#gv" transform="translate(800 0)"></use>
    <use xlink:href="#gv" transform="translate(850 0)"></use>
    <use xlink:href="#gv" transform="translate(900 0)"></use>
</svg>